<svg height="496pt" viewBox="0 0 496 496" width="496pt" xmlns="http://www.w3.org/2000/svg"><path d="m128 96v128h-32v16h80v-16h-32v-128h38.238281l-12.796875 64h-11.699218l12 48h44.496093l12-48h-11.679687l-12.796875-64h14.238281v-16h-72v-16h-16v16h-72v16h14.238281l-12.796875 64h-11.6875l12 48h44.492188l12-48h-11.6875l-12.796875-64zm73.753906 96h-19.507812l-4-16h27.507812zm-15.992187-32 6.238281-31.207031 6.238281 31.207031zm-96.007813 32h-19.507812l-4-16h27.507812zm-15.992187-32 6.238281-31.207031 6.238281 31.207031zm0 0"/><path d="m272 136c0-74.992188-61.007812-136-136-136s-136 61.007812-136 136 61.007812 136 136 136 136-61.007812 136-136zm-256 0c0-66.167969 53.832031-120 120-120s120 53.832031 120 120-53.832031 120-120 120-120-53.832031-120-120zm0 0"/><path d="m496 288v-48h-16.40625c-3.050781-39.703125-28.402344-73.246094-63.59375-87.976562v-48.023438c0-19.3125-13.769531-35.472656-32-39.191406v-16.808594h40v-48h-56v64.808594c-18.230469 3.71875-32 19.871094-32 39.191406v48.023438c-35.191406 14.730468-60.550781 48.273437-63.59375 87.976562h-16.40625v48h16v16h-192v48h16v144h400v-48h-16v-160zm-112-272h24v16h-24zm79.59375 224h-39.898438c-1.679687-25.441406-11.0625-56.152344-26.3125-77.265625 35.695313 8.96875 62.808594 39.707031 66.210938 77.265625zm-87.59375-77.519531c18 16.503906 29.65625 50.582031 31.664062 77.519531h-63.3125c1.992188-26.9375 13.648438-61.007812 31.648438-77.519531zm24-15.578125c-5.199219-1.230469-10.535156-2.078125-16-2.503906v-32.398438h16zm-24-66.902344c10.433594 0 19.328125 6.6875 22.632812 16h-45.265624c3.304687-9.3125 12.199218-16 22.632812-16zm-24 32h16v32.40625c-5.464844.417969-10.800781 1.265625-16 2.503906zm2.609375 50.734375c-15.25 21.113281-24.632813 51.824219-26.3125 77.265625h-39.898437c3.410156-37.558594 30.523437-68.296875 66.210937-77.265625zm-82.609375 93.265625h208v16h-208zm128 192v-160h32v160zm-48-160v160h-32v-160zm16 0h16v160h-16zm-64 0v160h-16v-160zm-208 32h176v16h-176zm64 160h-16v-48h16zm64 0h-16v-48h16zm32 0h-16v-64h-48v64h-16v-64h-48v64h-16v-128h160v96h-16zm224 0h-208v-16h208zm-16-32h-16v-160h16zm0 0"/><path d="m128 32h16v16h-16zm0 0"/><path d="m240 368h16v16h-16zm0 0"/><path d="m128 368h16v16h-16zm0 0"/><path d="m160 368h64v16h-64zm0 0"/></svg>