<svg height="496pt" viewBox="0 0 496 496" width="496pt" xmlns="http://www.w3.org/2000/svg"><path d="M128 96v128H96v16h80v-16h-32V96h38.238l-12.797 64h-11.699l12 48h44.496l12-48h-11.68l-12.796-64H216V80h-72V64h-16v16H56v16h14.238l-12.797 64H45.754l12 48h44.492l12-48H102.56L89.762 96zm73.754 96h-19.508l-4-16h27.508zm-15.992-32L192 128.793 198.238 160zm-96.008 32H70.246l-4-16h27.508zm-15.992-32L80 128.793 86.238 160zm0 0"/><path d="M272 136C272 61.008 210.992 0 136 0S0 61.008 0 136s61.008 136 136 136 136-61.008 136-136zm-256 0C16 69.832 69.832 16 136 16s120 53.832 120 120-53.832 120-120 120S16 202.168 16 136zm0 0"/><path d="M496 288v-48h-16.406c-3.051-39.703-28.403-73.246-63.594-87.977V104c0-19.313-13.77-35.473-32-39.191V48h40V0h-56v64.809c-18.23 3.718-32 19.87-32 39.191v48.023c-35.191 14.73-60.55 48.274-63.594 87.977H256v48h16v16H80v48h16v144h400v-48h-16V288zM384 16h24v16h-24zm79.594 224h-39.899c-1.68-25.441-11.062-56.152-26.312-77.266 35.695 8.97 62.808 39.707 66.21 77.266zM376 162.48c18 16.504 29.656 50.583 31.664 77.52h-63.312C346.344 213.062 358 178.992 376 162.48zm24-15.578a104.716 104.716 0 0 0-16-2.504V112h16zM376 80c10.434 0 19.328 6.688 22.633 16h-45.266c3.305-9.313 12.2-16 22.633-16zm-24 32h16v32.406c-5.465.418-10.8 1.266-16 2.504zm2.61 50.734c-15.25 21.114-24.633 51.825-26.313 77.266h-39.899c3.41-37.559 30.524-68.297 66.211-77.266zM272 256h208v16H272zm128 192V288h32v160zm-48-160v160h-32V288zm16 0h16v160h-16zm-64 0v160h-16V288zM96 320h176v16H96zm64 160h-16v-48h16zm64 0h-16v-48h16zm32 0h-16v-64h-48v64h-16v-64h-48v64h-16V352h160v96h-16zm224 0H272v-16h208zm-16-32h-16V288h16zM128 32h16v16h-16zm0 0"/><path d="M240 368h16v16h-16zm-112 0h16v16h-16zm32 0h64v16h-64zm0 0"/></svg>