<?xml version="1.0" encoding="iso-8859-1"?>
<!-- Generator: Adobe Illustrator 19.0.0, SVG Export Plug-In . SVG Version: 6.00 Build 0)  -->
<svg version="1.1" id="Capa_1" xmlns="http://www.w3.org/2000/svg" xmlns:xlink="http://www.w3.org/1999/xlink" x="0px" y="0px"
	 viewBox="0 0 496 496" style="enable-background:new 0 0 496 496;" xml:space="preserve">
<g>
	<g>
		<g>
			<path d="M304,192h192V32H288v-8c0-13.232-10.768-24-24-24s-24,10.768-24,24v256h-35.632l-56,64H0v128h140.688l24,24H228h92h12
				c15.44,0,28-12.56,28-28c0-7.84-3.256-14.912-8.464-20c5.208-5.088,8.464-12.16,8.464-20c0-7.84-3.256-14.912-8.464-20
				c5.208-5.088,8.464-12.16,8.464-20c0-7.84-3.256-14.912-8.464-20c5.208-5.088,8.464-12.16,8.464-20c0-15.44-12.56-28-28-28
				h-18.808c1.752-3.648,2.808-7.688,2.808-12c0-15.44-12.56-28-28-28V48h192v128H304V192z M256,24c0-4.408,3.592-8,8-8
				c4.408,0,8,3.592,8,8v8h-16V24z M256,48h16v232h-16V48z M332,480h-12h-92c-6.616,0-12-5.384-12-12c0-6.616,5.384-12,12-12h104
				c6.616,0,12,5.384,12,12C344,474.616,338.616,480,332,480z M332,440H228c-6.616,0-12-5.384-12-12c0-6.616,5.384-12,12-12h104
				c6.616,0,12,5.384,12,12C344,434.616,338.616,440,332,440z M332,400H228c-6.616,0-12-5.384-12-12c0-6.616,5.384-12,12-12h104
				c6.616,0,12,5.384,12,12C344,394.616,338.616,400,332,400z M332,336c6.616,0,12,5.384,12,12c0,6.616-5.384,12-12,12H228
				c-3.832,0-7.224-1.928-9.44-4.832L235.592,336H288H332z M300,308c0,6.616-5.384,12-12,12h-59.592l-66.384,74.68l11.96,10.632
				l33.824-38.056c0.232,0.24,0.48,0.464,0.72,0.696C203.28,373.048,200,380.136,200,388c0,7.84,3.256,14.912,8.464,20
				c-5.208,5.088-8.464,12.16-8.464,20c0,7.84,3.256,14.912,8.464,20c-5.208,5.088-8.464,12.16-8.464,20
				c0,4.312,1.064,8.352,2.808,12h-31.496l-24-24H16v-96h139.632l56-64H288C294.616,296,300,301.384,300,308z"/>
			<path d="M432,112c0-26.472-21.528-48-48-48s-48,21.528-48,48s21.528,48,48,48S432,138.472,432,112z M384,80
				c17.648,0,32,14.352,32,32c0,5.92-1.72,11.392-4.536,16.152l-43.616-43.616C372.608,81.72,378.08,80,384,80z M352,112
				c0-5.92,1.72-11.392,4.536-16.152l43.616,43.616C395.392,142.28,389.92,144,384,144C366.352,144,352,129.648,352,112z"/>
			<path d="M38.416,194.672C23.96,178.528,16,157.688,16,136c0-48.52,39.48-88,88-88c15.464,0,30.664,4.064,43.968,11.752
				l8.008-13.848C140.248,36.808,122.272,32,104,32C46.656,32,0,78.656,0,136c0,25.64,9.408,50.264,26.496,69.344L38.416,194.672z"
				/>
			<path d="M192,136c0,48.52-39.48,88-88,88c-18.568,0-36.32-5.712-51.336-16.512l-9.344,12.984C61.072,233.248,82.056,240,104,240
				c57.344,0,104-46.656,104-104c0-29.544-12.64-57.8-34.664-77.52L162.664,70.4C181.304,87.088,192,111,192,136z"/>
			<path d="M120,176H88c-8.824,0-16-7.176-16-16H56c0,17.648,14.352,32,32,32h8v16h16v-16h8c17.648,0,32-14.352,32-32
				s-14.352-32-32-32H88c-8.824,0-16-7.176-16-16s7.176-16,16-16h32c8.824,0,16,7.176,16,16h16c0-17.648-14.352-32-32-32h-8V64H96
				v16h-8c-17.648,0-32,14.352-32,32s14.352,32,32,32h32c8.824,0,16,7.176,16,16C136,168.824,128.824,176,120,176z"/>
			<rect x="96" y="272" width="16" height="16"/>
			<rect x="144" y="272" width="16" height="16"/>
			<rect x="48" y="272" width="16" height="16"/>
		</g>
	</g>
</g>
<g>
</g>
<g>
</g>
<g>
</g>
<g>
</g>
<g>
</g>
<g>
</g>
<g>
</g>
<g>
</g>
<g>
</g>
<g>
</g>
<g>
</g>
<g>
</g>
<g>
</g>
<g>
</g>
<g>
</g>
</svg>
