<svg height="512pt" viewBox="0 0 512 512" width="512pt" xmlns="http://www.w3.org/2000/svg"><path d="M31.59 384.703h16.027v15.09H31.59zm160.293 0h16.027v15.09h-16.027zm112.207 0h16.027v15.09H304.09zm160.293 0h16.027v15.09h-16.027zM192.352 175.852c0 13.699 6.601 39.605 31.59 39.605h64.117c24.988 0 31.59-25.906 31.59-39.605 0-25.907-15.575-48.239-37.84-58.157 8.437-7.27 13.793-18.02 13.793-30.004 0-21.836-17.766-39.605-39.602-39.605-21.84 0-39.605 17.77-39.605 39.605 0 11.985 5.359 22.735 13.796 30.004-22.27 9.918-37.84 32.246-37.84 58.157zM256 127.297c4.238 0 8.348.547 12.27 1.574L256 141.141l-12.27-12.27a48.346 48.346 0 0 1 12.27-1.574zM231.484 87.69c0-13.515 11-24.515 24.516-24.515s24.512 11 24.512 24.515-10.996 24.512-24.512 24.512-24.516-10.992-24.516-24.512zm-2.46 47.813L256 162.48l26.977-26.98c13.003 8.723 21.582 23.547 21.582 40.332 0 .07-.07 7.059-2.641 13.7-3.754 9.71-9.711 10.835-13.86 10.835h-64.117c-4.152 0-10.105-1.125-13.859-10.836-2.57-6.64-2.64-13.629-2.64-13.68 0-16.796 8.578-31.628 21.581-40.347zM56.102 432.324c0 13.696 6.601 39.602 31.59 39.602h64.117c24.988 0 31.59-25.903 31.59-39.602 0-25.91-15.57-48.238-37.84-58.16 8.437-7.27 13.796-18.02 13.796-30.004 0-21.836-17.77-39.601-39.605-39.601s-39.605 17.765-39.605 39.601c0 11.985 5.359 22.735 13.796 30-22.27 9.926-37.84 32.254-37.84 58.164zm63.648-48.558c4.238 0 8.348.55 12.27 1.574l-12.27 12.27-12.27-12.27a48.346 48.346 0 0 1 12.27-1.574zM95.238 344.16c0-13.515 10.996-24.512 24.512-24.512s24.512 10.997 24.512 24.512c0 13.52-10.996 24.516-24.512 24.516S95.238 357.68 95.238 344.16zm-2.465 47.813l26.977 26.976 26.977-26.976c13.003 8.718 21.582 23.543 21.582 40.328 0 .07-.07 7.062-2.641 13.703-3.754 9.71-9.707 10.836-13.86 10.836H87.692c-4.152 0-10.105-1.125-13.859-10.836-2.57-6.64-2.64-13.633-2.64-13.68 0-16.8 8.578-31.633 21.581-40.351zm235.829 40.351c0 13.696 6.601 39.602 31.59 39.602h64.117c24.988 0 31.59-25.903 31.59-39.602 0-25.91-15.575-48.238-37.84-58.16 8.437-7.27 13.793-18.02 13.793-30.004 0-21.836-17.766-39.601-39.602-39.601-21.84 0-39.605 17.765-39.605 39.601 0 11.985 5.359 22.735 13.796 30.004-22.27 9.922-37.84 32.25-37.84 58.16zm63.648-48.558c4.238 0 8.348.55 12.27 1.574l-12.27 12.27-12.27-12.27a48.323 48.323 0 0 1 12.27-1.574zm-24.516-39.606c0-13.515 10.996-24.512 24.516-24.512 13.516 0 24.512 10.997 24.512 24.512 0 13.52-10.996 24.516-24.512 24.516-13.52 0-24.516-10.996-24.516-24.516zm-2.46 47.813l26.976 26.976 26.977-26.98c13.003 8.722 21.578 23.547 21.578 40.332 0 .07-.07 7.062-2.637 13.699-3.754 9.715-9.711 10.836-13.86 10.836h-64.117c-4.152 0-10.105-1.121-13.859-10.836-2.57-6.637-2.64-13.629-2.64-13.676 0-16.8 8.578-31.629 21.581-40.351zm0 0"/><path d="M392.25 272.5c-35.465 0-67.367 15.5-89.313 40.074h-39.394v-41.226c71.375-3.93 128.234-63.23 128.234-135.567C391.781 60.911 330.867 0 256 0c-30.77 0-60.91 10.578-84.867 29.785l9.437 11.774c21.602-17.317 47.684-26.47 75.43-26.47 66.547 0 120.687 54.141 120.687 120.692 0 66.547-54.14 120.688-120.687 120.688-66.55 0-120.691-54.14-120.691-120.688 0-29.437 10.714-57.785 30.171-79.828l-11.316-9.988c-21.89 24.8-33.945 56.7-33.945 89.812 0 72.336 56.863 131.641 128.234 135.567v41.226h-39.39c-21.946-24.574-53.852-40.074-89.313-40.074-24.637 0-48.3 7.426-68.434 21.469l8.633 12.379c17.59-12.27 38.27-18.758 59.801-18.758 57.71 0 104.66 46.953 104.66 104.664 0 57.707-46.95 104.66-104.66 104.66S15.09 449.96 15.09 392.25c0-27.559 10.62-53.57 29.902-73.246L34.215 308.44C12.152 330.957 0 360.72 0 392.25 0 458.281 53.719 512 119.75 512S239.5 458.281 239.5 392.25c0-23.77-6.96-45.941-18.95-64.59h70.9c-11.99 18.649-18.95 40.82-18.95 64.59 0 66.031 53.719 119.75 119.75 119.75 31.527 0 61.29-12.152 83.805-34.215l-10.559-10.777c-19.68 19.281-45.691 29.902-73.246 29.902-57.71 0-104.66-46.95-104.66-104.66s46.95-104.66 104.66-104.66c57.707 0 104.66 46.95 104.66 104.66 0 21.531-6.484 42.21-18.758 59.8l12.38 8.634C504.573 440.547 512 416.883 512 392.25c0-66.031-53.719-119.75-119.75-119.75zm0 0"/><path d="M151.809 128.234h16.03v15.09h-16.03zm192.351 0h16.031v15.09h-16.03zm0 0"/></svg>