<svg height="469pt" viewBox="0 -5 469 468" width="469pt" xmlns="http://www.w3.org/2000/svg"><path fill="#c2b385" d="M191.719 283.102c17.46 0 31.136-13.254 31.136-30.172a7.988 7.988 0 0 0-4.171-7.016L205.262 220.5H226v69h-6.387a8 8 0 0 0 0 16h29.602a8 8 0 0 0 0-16H242v-69h21.566l-13.421 25.41a7.99 7.99 0 0 0-4.168 7.024c0 16.918 13.671 30.164 31.132 30.164 17.457 0 31.133-13.25 31.133-30.168a8.007 8.007 0 0 0-4.172-7.028l-19.886-37.672a7.99 7.99 0 0 0-7.075-4.253c-.964 0-1.902.523-2.777.523H194.5c-.875 0-1.809-.523-2.777-.523a7.994 7.994 0 0 0-7.075 4.257l-19.89 37.664a8.007 8.007 0 0 0-4.172 7.028c0 16.922 13.676 30.176 31.133 30.176zm0-16.43c-5.29 0-9.867-2.168-12.563-6.168h25.13c-2.696 3.996-7.274 6.164-12.567 6.164zm85.39 0c-5.293 0-9.87-2.168-12.566-6.168h25.129c-2.695 3.996-7.274 6.164-12.563 6.164zm8.356-22.172h-16.711l8.355-15.824zm-93.746-15.824l8.355 15.824h-16.707zm0 0"/><path fill="#c2b385" d="M461.5 276.5H375v-117a8.33 8.33 0 0 0-8.375-8H338v-19c0-4.418-3.082-8-7.5-8h-11.352c-2.859-31.594-23.144-58.941-52.546-70.848A32.109 32.109 0 0 0 243 27.762V8.5a8 8 0 0 0-16 0v19.254a32.024 32.024 0 0 0-23.594 25.898c-29.41 11.903-49.695 39.25-52.554 70.848H139.5c-4.418 0-8.5 3.582-8.5 8v19h-27.375a7.69 7.69 0 0 0-7.625 8v117H8.5c-4.418 0-8.5 3.582-8.5 8v166c0 4.418 4.082 8 8.5 8h453c4.418 0 7.5-3.582 7.5-8v-166c0-4.418-3.082-8-7.5-8zM322 151.5h-14v-11h14zm-128-11v11h-16v-11zm16 0h17v11h-17zm33 0h16v11h-16zm32 0h17v11h-17zm-51.41-93.094a15.884 15.884 0 0 1 11.277-4.906H235a16.086 16.086 0 0 1 12.176 5.766 88.302 88.302 0 0 0-24.356.03c.25-.288.496-.612.77-.89zM235 63.5c34.91.047 64.219 26.305 68.082 61H166.918c3.863-34.695 33.172-60.953 68.082-61zm-88 77h15v11h-15zm-52 302H16v-150h79zm17-275h247v115.633c0 .445-1 .902-1 1.367v158h-19v-77.785c0-16.293-13.207-29.5-29.5-29.5s-29.5 13.207-29.5 29.5V442.5h-16v-77.785c0-16.02-12.984-29-29-29s-29 12.98-29 29V442.5h-16v-77.785c0-16.293-13.207-29.5-29.5-29.5s-29.5 13.207-29.5 29.5V442.5h-19zm211 275h-27v-77.785c0-7.457 6.043-13.5 13.5-13.5s13.5 6.043 13.5 13.5zm-75 0h-26v-77.785c0-7.18 5.82-13 13-13s13 5.82 13 13zm-74 0h-27v-77.785c0-7.457 6.043-13.5 13.5-13.5s13.5 6.043 13.5 13.5zm279 0h-78v-150h78zm0 0"/></svg>