<svg height="512pt" viewBox="0 -68 512 512" width="512pt" xmlns="http://www.w3.org/2000/svg"><path fill="#c2b385" d="M320 375.984c-26.473 0-48-21.527-48-48s21.527-48 48-48c4.426 0 8 3.575 8 8 0 4.422-3.574 8-8 8-17.648 0-32 14.352-32 32s14.352 32 32 32c4.426 0 8 3.575 8 8 0 4.422-3.574 8-8 8zm0 0"/><path fill="#c2b385" d="M504 295.984H320c-4.426 0-8-3.578-8-8 0-4.425 3.574-8 8-8h184c4.426 0 8 3.575 8 8 0 4.422-3.574 8-8 8zm0 80H320c-4.426 0-8-3.578-8-8 0-4.425 3.574-8 8-8h184c4.426 0 8 3.575 8 8 0 4.422-3.574 8-8 8zm0 0"/><path fill="#c2b385" d="M488 375.984c-4.426 0-8-3.578-8-8v-80c0-4.425 3.574-8 8-8s8 3.575 8 8v80c0 4.422-3.574 8-8 8zm-32-104c-4.426 0-8-3.578-8-8 0-4.425 3.574-8 8-8 13.23 0 24-10.77 24-24s-10.77-24-24-24c-4.426 0-8-3.578-8-8 0-4.418 3.574-8 8-8 22.055 0 40 17.946 40 40s-17.945 40-40 40zm0 0"/><path fill="#c2b385" d="M456 271.984H304c-4.426 0-8-3.578-8-8 0-4.425 3.574-8 8-8h152c4.426 0 8 3.575 8 8 0 4.422-3.574 8-8 8zm0-64H304c-4.426 0-8-3.578-8-8 0-4.418 3.574-8 8-8h152c4.426 0 8 3.582 8 8 0 4.422-3.574 8-8 8zm0 0"/><path fill="#c2b385" d="M320 271.984c-4.426 0-8-3.578-8-8v-64c0-4.418 3.574-8 8-8s8 3.582 8 8v64c0 4.422-3.574 8-8 8zM8 311.969c-4.426 0-8-3.578-8-8 0-30.864 25.129-55.985 56-55.985 4.426 0 8 3.575 8 8 0 4.422-3.574 8-8 8-22.055 0-40 17.938-40 39.985 0 4.422-3.574 8-8 8zm0 0"/><path fill="#c2b385" d="M88 263.984H56c-4.426 0-8-3.578-8-8 0-4.425 3.574-8 8-8h32c4.426 0 8 3.575 8 8 0 4.422-3.574 8-8 8zm-80 96c-4.426 0-8-3.578-8-8v-45.718c0-4.426 3.574-8 8-8s8 3.574 8 8v45.718c0 4.422-3.574 8-8 8zm240-48.015c-4.426 0-8-3.578-8-8 0-22.047-17.945-39.985-40-39.985-4.426 0-8-3.578-8-8 0-4.425 3.574-8 8-8 30.871 0 56 25.121 56 55.985 0 4.422-3.574 8-8 8zm0 0"/><path fill="#c2b385" d="M200 263.984h-32c-4.426 0-8-3.578-8-8 0-4.425 3.574-8 8-8h32c4.426 0 8 3.575 8 8 0 4.422-3.574 8-8 8zm48 96c-4.426 0-8-3.578-8-8v-45.718c0-4.426 3.574-8 8-8s8 3.574 8 8v45.718c0 4.422-3.574 8-8 8zm-16 16H24c-4.426 0-8-3.578-8-8 0-4.425 3.574-8 8-8h208c4.426 0 8 3.575 8 8 0 4.422-3.574 8-8 8zm-144-112c-4.426 0-8-3.578-8-8v-25.609c0-4.422 3.574-8 8-8s8 3.578 8 8v25.61c0 4.421-3.574 8-8 8zm0 0"/><path fill="#c2b385" d="M168 263.984c-4.426 0-8-3.578-8-8v-25.609c0-4.422 3.574-8 8-8s8 3.578 8 8v25.61c0 4.421-3.574 8-8 8zm0 0"/><path fill="#c2b385" d="M128 247.984c-52.938 0-96-43.062-96-96 0-4.418 3.574-8 8-8s8 3.582 8 8c0 44.114 35.887 80 80 80s80-35.886 80-80c0-4.418 3.574-8 8-8s8 3.582 8 8c0 52.938-43.063 96-96 96zm0 0"/><path fill="#c2b385" d="M40 160c-4.426 0-8-3.586-8-8V80c0-4.414 3.574-8 8-8s8 3.586 8 8v72c0 4.414-3.574 8-8 8zm176 0c-4.426 0-8-3.586-8-8V80c0-4.414 3.574-8 8-8s8 3.586 8 8v72c0 4.414-3.574 8-8 8zm0 0"/><path fill="#c2b385" d="M216 88c-4.426 0-8-3.586-8-8 0-17.648-14.352-32-32-32-4.426 0-8-3.586-8-8s3.574-8 8-8c26.473 0 48 21.527 48 48 0 4.414-3.574 8-8 8zm0 0"/><path fill="#c2b385" d="M176 48c-4.426 0-8-3.586-8-8V8c0-4.414 3.574-8 8-8s8 3.586 8 8v32c0 4.414-3.574 8-8 8zm0 0"/><path fill="#c2b385" d="M176 16h-64c-4.426 0-8-3.586-8-8s3.574-8 8-8h64c4.426 0 8 3.586 8 8s-3.574 8-8 8zm0 0"/><path fill="#c2b385" d="M40 88c-4.426 0-8-3.586-8-8 0-44.113 35.887-80 80-80 4.426 0 8 3.586 8 8s-3.574 8-8 8c-35.29 0-64 28.71-64 64 0 4.414-3.574 8-8 8zm176 40a7.984 7.984 0 0 1-5.656-2.344l-24-24c-3.13-3.129-3.13-8.183 0-11.312s8.183-3.13 11.312 0l24 24a7.99 7.99 0 0 1 0 11.312A7.951 7.951 0 0 1 216 128zm0 0"/><path fill="#c2b385" d="M128 120c-35.879 0-66.504-16.266-67.793-16.96-3.887-2.087-5.344-6.935-3.254-10.825a8.004 8.004 0 0 1 10.832-3.262C68.063 89.105 96.265 104 128 104c31.895 0 59.93-14.895 60.207-15.04 3.883-2.112 8.746-.64 10.832 3.247a7.994 7.994 0 0 1-3.254 10.832C194.504 103.734 163.88 120 128 120zm0 0"/><path fill="#c2b385" d="M40 128a7.984 7.984 0 0 1-5.656-2.344 7.99 7.99 0 0 1 0-11.312l24-24c3.129-3.13 8.183-3.13 11.312 0s3.13 8.183 0 11.312l-24 24A7.951 7.951 0 0 1 40 128zm72 151.984a8.058 8.058 0 0 1-4.434-1.343l-24.007-16c-3.672-2.457-4.672-7.418-2.215-11.098 2.449-3.68 7.398-4.664 11.097-2.215l24.008 16c3.672 2.457 4.672 7.414 2.215 11.098a7.988 7.988 0 0 1-6.664 3.558zm0 0"/><path fill="#c2b385" d="M112.016 279.984a8.008 8.008 0 0 1-7.168-4.425 8 8 0 0 1 3.578-10.735l15.988-8c3.953-1.96 8.762-.375 10.738 3.574a8.004 8.004 0 0 1-3.578 10.739l-15.988 8a7.962 7.962 0 0 1-3.57.847zm31.984 0a7.988 7.988 0 0 1-6.664-3.558c-2.457-3.684-1.457-8.64 2.215-11.098l24.008-16c3.68-2.45 8.648-1.465 11.097 2.215 2.457 3.68 1.457 8.64-2.215 11.098l-24.007 16a7.995 7.995 0 0 1-4.434 1.343zm0 0"/><path fill="#c2b385" d="M143.984 279.984a8.05 8.05 0 0 1-3.57-.84l-15.988-8a8.004 8.004 0 0 1-3.578-10.738c1.984-3.949 6.785-5.535 10.738-3.574l15.988 8a8 8 0 0 1 3.578 10.734 8.014 8.014 0 0 1-7.168 4.418zm88.016 96c-4.426 0-8-3.578-8-8 0-4.425 3.574-8 8-8 4.414 0 8-3.586 8-8 0-4.425 3.574-8 8-8s8 3.575 8 8c0 13.239-10.77 24-24 24zm-208 0c-13.23 0-24-10.77-24-24 0-4.425 3.574-8 8-8s8 3.575 8 8c0 4.414 3.586 8 8 8 4.426 0 8 3.575 8 8 0 4.422-3.574 8-8 8zm112.016.176a8.05 8.05 0 0 1-2.2-.305c-4.25-1.207-6.71-5.64-5.504-9.886L160.305 253.8c1.215-4.25 5.656-6.723 9.886-5.504 4.25 1.207 6.711 5.64 5.504 9.887l-31.992 112.168a8.004 8.004 0 0 1-7.687 5.808zm0 0"/><path fill="#c2b385" d="M152.016 376.16a7.973 7.973 0 0 1-3.778-.953 7.988 7.988 0 0 1-3.261-10.832l36.359-67.758-2.809-2.754a7.988 7.988 0 0 1-1.566-9.254l15.894-32.168c1.954-3.953 6.754-5.578 10.72-3.625a8.001 8.001 0 0 1 3.624 10.72l-13.328 26.968 2.953 2.894c2.535 2.497 3.137 6.364 1.45 9.497l-39.204 73.05a8.01 8.01 0 0 1-7.054 4.215zm-32.063 0a8.003 8.003 0 0 1-7.687-5.808L80.273 258.184c-1.21-4.247 1.247-8.68 5.504-9.887 4.254-1.176 8.672 1.246 9.887 5.504l31.992 112.168c1.207 4.246-1.25 8.68-5.504 9.886-.726.2-1.472.305-2.199.305zm0 0"/><path fill="#c2b385" d="M103.953 376.16a8.006 8.006 0 0 1-7.058-4.215l-39.2-73.05a7.992 7.992 0 0 1 1.45-9.497l2.953-2.894-13.328-26.969c-1.961-3.96-.336-8.758 3.62-10.719 3.977-1.96 8.77-.328 10.723 3.625l15.895 32.168a8.016 8.016 0 0 1-1.567 9.254l-2.808 2.754 36.36 67.758c2.097 3.89.632 8.746-3.266 10.832a7.958 7.958 0 0 1-3.774.953zm16.047-72c-3.36 0-6.488-2.129-7.594-5.496l-7.992-24.168c-1.39-4.184.89-8.719 5.09-10.105 4.183-1.438 8.719.89 10.105 5.09l7.993 24.167c1.39 4.184-.891 8.72-5.09 10.106a7.932 7.932 0 0 1-2.512.406zm0 0"/><path fill="#c2b385" d="M136 304a8.207 8.207 0 0 1-2.52-.406c-4.19-1.403-6.464-5.93-5.074-10.121l7.992-24.016c1.403-4.191 5.922-6.45 10.122-5.074 4.19 1.402 6.464 5.93 5.074 10.12l-7.992 24.017A8.01 8.01 0 0 1 136 304zm0 0"/><path fill="#c2b385" d="M110.84 344.16a8.179 8.179 0 0 1-1.8-.2c-4.306-.983-6.993-5.272-6.009-9.585l9.168-40c.992-4.305 5.274-7.031 9.586-6.008 4.305.985 6.992 5.274 6.008 9.586l-9.168 40c-.84 3.695-4.129 6.207-7.785 6.207zm0 0"/><path fill="#c2b385" d="M145.129 344.16a8.02 8.02 0 0 1-7.8-6.223l-9.13-40.16a7.987 7.987 0 0 1 6.024-9.57c4.28-1.047 8.586 1.723 9.578 6.023l9.137 40.16c.972 4.305-1.723 8.594-6.036 9.57-.59.138-1.191.2-1.773.2zm0 0"/><path fill="#c2b385" d="M136 304.16h-16a7.99 7.99 0 0 1-8-8c0-4.426 3.574-8 8-8h16c4.426 0 8 3.574 8 8s-3.574 8-8 8zm320.105-256H344.152c-4.425 0-8-3.586-8-8 0-4.418 3.575-8 8-8h111.953c4.422 0 8 3.582 8 8 0 4.414-3.585 8-8 8zm0 0"/><path fill="#c2b385" d="M400.137 184.176c-4.426 0-8-3.582-8-8V16.16c0-4.418 3.574-8 8-8 4.422 0 8 3.582 8 8v160.016c0 4.418-3.586 8-8 8zm0 0"/><path fill="#c2b385" d="M456.129 184.176H344.145c-4.426 0-8-3.582-8-8 0-4.414 3.574-8 8-8h111.984a8 8 0 0 1 0 16zM344.152 136.16c-17.648 0-32-14.351-32-32 0-4.418 3.575-8 8-8 4.422 0 8 3.582 8 8 0 8.824 7.176 16 16 16 8.825 0 16-7.176 16-16 0-4.418 3.575-8 8-8 4.422 0 8 3.582 8 8 0 17.64-14.351 32-32 32zm0 0"/><path fill="#c2b385" d="M368.152 112.16h-48c-4.425 0-8-3.586-8-8 0-4.418 3.575-8 8-8h48c4.422 0 8 3.582 8 8 0 4.414-3.586 8-8 8zm0 0"/><path fill="#c2b385" d="M320.152 112.16a8.137 8.137 0 0 1-2.816-.512c-4.137-1.55-6.223-6.168-4.68-10.304l24-64c1.543-4.145 6.16-6.215 10.305-4.68 4.137 1.55 6.223 6.168 4.68 10.305l-24 64c-1.2 3.207-4.258 5.191-7.489 5.191zm0 0"/><path fill="#c2b385" d="M368.152 112.16a8.025 8.025 0 0 1-7.496-5.191l-24-64c-1.543-4.137.543-8.746 4.68-10.305 4.144-1.527 8.754.543 10.305 4.68l24 64c1.543 4.136-.543 8.746-4.68 10.304a8.062 8.062 0 0 1-2.809.512zm87.953 24c-17.648 0-32-14.351-32-32 0-4.418 3.575-8 8-8 4.422 0 8 3.582 8 8 0 8.824 7.176 16 16 16s16-7.176 16-16c0-4.418 3.575-8 8-8 4.422 0 8 3.582 8 8 0 17.64-14.351 32-32 32zm0 0"/><path fill="#c2b385" d="M480.105 112.16h-48c-4.425 0-8-3.586-8-8 0-4.418 3.575-8 8-8h48c4.422 0 8 3.582 8 8 0 4.414-3.585 8-8 8zm0 0"/><path fill="#c2b385" d="M432.105 112.16a8.12 8.12 0 0 1-2.816-.512c-4.137-1.55-6.226-6.168-4.68-10.304l24-64c1.551-4.145 6.168-6.215 10.301-4.68 4.137 1.55 6.227 6.168 4.684 10.305l-24 64a8.01 8.01 0 0 1-7.489 5.191zm0 0"/><path fill="#c2b385" d="M480.105 112.16a8.02 8.02 0 0 1-7.496-5.191l-24-64a8.011 8.011 0 0 1 4.68-10.305c4.137-1.527 8.75.543 10.305 4.68l24 64a8.016 8.016 0 0 1-4.684 10.304 8.04 8.04 0 0 1-2.805.512zm0 0"/></svg>