<svg xmlns="http://www.w3.org/2000/svg" viewBox="0 0 496 496"><g fill="#c2b385"><path d="M304 192h192V32H288v-8c0-13.232-10.768-24-24-24s-24 10.768-24 24v256h-35.632l-56 64H0v128h140.688l24 24H332c15.44 0 28-12.56 28-28 0-7.84-3.256-14.912-8.464-20 5.208-5.088 8.464-12.16 8.464-20s-3.256-14.912-8.464-20c5.208-5.088 8.464-12.16 8.464-20s-3.256-14.912-8.464-20c5.208-5.088 8.464-12.16 8.464-20 0-15.44-12.56-28-28-28h-18.808c1.752-3.648 2.808-7.688 2.808-12 0-15.44-12.56-28-28-28V48h192v128H304v16zM256 24c0-4.408 3.592-8 8-8 4.408 0 8 3.592 8 8v8h-16v-8zm0 24h16v232h-16V48zm76 432H228c-6.616 0-12-5.384-12-12s5.384-12 12-12h104c6.616 0 12 5.384 12 12s-5.384 12-12 12zm0-40H228c-6.616 0-12-5.384-12-12s5.384-12 12-12h104c6.616 0 12 5.384 12 12s-5.384 12-12 12zm0-40H228c-6.616 0-12-5.384-12-12s5.384-12 12-12h104c6.616 0 12 5.384 12 12s-5.384 12-12 12zm0-64c6.616 0 12 5.384 12 12s-5.384 12-12 12H228c-3.832 0-7.224-1.928-9.44-4.832L235.592 336H332zm-32-28c0 6.616-5.384 12-12 12h-59.592l-66.384 74.68 11.96 10.632 33.824-38.056c.232.24.48.464.72.696C203.28 373.048 200 380.136 200 388c0 7.84 3.256 14.912 8.464 20-5.208 5.088-8.464 12.16-8.464 20s3.256 14.912 8.464 20c-5.208 5.088-8.464 12.16-8.464 20 0 4.312 1.064 8.352 2.808 12h-31.496l-24-24H16v-96h139.632l56-64H288c6.616 0 12 5.384 12 12z"/><path d="M432 112c0-26.472-21.528-48-48-48s-48 21.528-48 48 21.528 48 48 48 48-21.528 48-48zm-48-32c17.648 0 32 14.352 32 32 0 5.92-1.72 11.392-4.536 16.152l-43.616-43.616C372.608 81.72 378.08 80 384 80zm-32 32c0-5.92 1.72-11.392 4.536-16.152l43.616 43.616C395.392 142.28 389.92 144 384 144c-17.648 0-32-14.352-32-32zM38.416 194.672C23.96 178.528 16 157.688 16 136c0-48.52 39.48-88 88-88 15.464 0 30.664 4.064 43.968 11.752l8.008-13.848C140.248 36.808 122.272 32 104 32 46.656 32 0 78.656 0 136c0 25.64 9.408 50.264 26.496 69.344l11.92-10.672zM192 136c0 48.52-39.48 88-88 88-18.568 0-36.32-5.712-51.336-16.512l-9.344 12.984C61.072 233.248 82.056 240 104 240c57.344 0 104-46.656 104-104 0-29.544-12.64-57.8-34.664-77.52L162.664 70.4C181.304 87.088 192 111 192 136z"/><path d="M120 176H88c-8.824 0-16-7.176-16-16H56c0 17.648 14.352 32 32 32h8v16h16v-16h8c17.648 0 32-14.352 32-32s-14.352-32-32-32H88c-8.824 0-16-7.176-16-16s7.176-16 16-16h32c8.824 0 16 7.176 16 16h16c0-17.648-14.352-32-32-32h-8V64H96v16h-8c-17.648 0-32 14.352-32 32s14.352 32 32 32h32c8.824 0 16 7.176 16 16s-7.176 16-16 16zm-24 96h16v16H96zm48 0h16v16h-16zm-96 0h16v16H48z"/></g></svg>