<svg xmlns="http://www.w3.org/2000/svg" viewBox="0 0 64 64" width="512" height="512"><g fill="#c2b385"><path d="M61 41a1 1 0 0 0 1-1v-6a1 1 0 0 0-1-1h-1V9a1 1 0 0 0-.293-.707l-6-6A1 1 0 0 0 53 2H29a1 1 0 0 0-1 1v30h-1a1 1 0 0 0-1 1v6a1 1 0 0 0 1 1h1v15.764l-1.895 3.789A1 1 0 0 0 27 62h34a1 1 0 0 0 .9-1.447L60 56.764V41zM54 5.414L56.586 8H54zM30 4h22v5a1 1 0 0 0 1 1h5v23H30zm-2 31h3v2h2v-2h6v2h2v-2h2v2h2v-2h9v2h2v-2h4v4H28zm8 25v-4h2v2h2v-2h2v2h2v-2h2v2h2v-2h2v4zm2-8v-2h2v2h2v-2h2v2h2v-2h2v4H34v-4h2v2zm20.1 5.447L59.382 60H52v-5a1 1 0 0 0-1-1h-1v-5a1 1 0 0 0-1-1H33a1 1 0 0 0-1 1v6a1 1 0 0 0 1 1h1v4h-5.382l1.282-2.553A1 1 0 0 0 30 57V41h28v16a1 1 0 0 0 .105.447z"/><path d="M54 56h2v2h-2zM22 31H6a1 1 0 0 0-1 1v5H4a1 1 0 0 0-1 1v6a1 1 0 0 0 1 1h1v4H3a1 1 0 0 0-1 1v6a1 1 0 0 0 1 1h16a1 1 0 0 0 1-1v-5h2a1 1 0 0 0 1-1v-6a1 1 0 0 0-1-1h-1v-4h1a1 1 0 0 0 1-1v-6a1 1 0 0 0-1-1zm-4 24H4v-4h2v2h2v-2h2v2h2v-2h2v2h2v-2h2zm3-6H7v-4h2v2h2v-2h2v2h2v-2h2v2h2v-2h2zm-2-6H5v-4h2v2h2v-2h2v2h2v-2h2v2h2v-2h2zm2-6H7v-4h2v2h2v-2h2v2h2v-2h2v2h2v-2h2zm33 11h2v6h-2zM41 21.586l-2.293-2.293-1.414 1.414 3 3a1 1 0 0 0 1.414 0l8-8-1.414-1.414z"/><path d="M44 8a11 11 0 1 0 11 11A11.013 11.013 0 0 0 44 8zm0 20a9 9 0 1 1 9-9 9.01 9.01 0 0 1-9 9zm-20-7a4 4 0 0 1-4-4 1 1 0 0 0-2 0 4 4 0 0 1-4 4 1 1 0 0 0 0 2 4 4 0 0 1 4 4 1 1 0 0 0 2 0 4 4 0 0 1 4-4 1 1 0 0 0 0-2zm-5 2.69A6.044 6.044 0 0 0 17.31 22 6.044 6.044 0 0 0 19 20.31 6.044 6.044 0 0 0 20.69 22 6.044 6.044 0 0 0 19 23.69zM3 15a5.006 5.006 0 0 1 5 5 1 1 0 0 0 2 0 5.006 5.006 0 0 1 5-5 1 1 0 0 0 0-2 5.006 5.006 0 0 1-5-5 1 1 0 0 0-2 0 5.006 5.006 0 0 1-5 5 1 1 0 0 0 0 2zm6-3.413A7.036 7.036 0 0 0 11.413 14 7.036 7.036 0 0 0 9 16.413 7.036 7.036 0 0 0 6.587 14 7.036 7.036 0 0 0 9 11.587zM32 6h2v2h-2zm4 0h2v2h-2z"/></g></svg>