<svg height="511pt" viewBox="0 -77 512 511" width="511pt" xmlns="http://www.w3.org/2000/svg"><path fill="#c2b385" d="M116.242 299.715h59.25a7.5 7.5 0 0 0 7.5-7.5c0-4.145-3.355-7.5-7.5-7.5h-59.25a7.5 7.5 0 1 0 0 15zm109.684 0h59.25a7.5 7.5 0 1 0 0-15h-59.25a7.497 7.497 0 0 0-7.5 7.5c-.004 4.14 3.355 7.5 7.5 7.5zm109.679 0h59.25a7.5 7.5 0 0 0 7.5-7.5 7.5 7.5 0 0 0-7.5-7.5h-59.25a7.497 7.497 0 0 0-7.5 7.5 7.5 7.5 0 0 0 7.5 7.5zm0 0"/><path fill="#c2b385" d="M511.914 262.129l-27.426-184.75c-.61-4.098-4.425-6.934-8.52-6.32a7.506 7.506 0 0 0-6.32 8.52l26.149 176.151H16.199l6.957-46.851a7.508 7.508 0 0 0-6.32-8.524c-4.11-.601-7.914 2.223-8.52 6.32C-.418 265.56.004 262.399.004 263.23v75.082c0 10.915 8.879 19.79 19.789 19.79h472.41c10.914 0 19.793-8.875 19.793-19.79 0-.609.035-75.402-.082-76.183zm-19.707 80.973H19.793a4.795 4.795 0 0 1-4.79-4.79v-38.597h50.81a7.5 7.5 0 0 0 7.5-7.5c0-4.145-3.356-7.5-7.5-7.5h-50.81V270.73h481.993v13.985h-51.71a7.5 7.5 0 1 0 0 15h51.71v38.597a4.797 4.797 0 0 1-4.789 4.79zm0 0"/><path fill="#c2b385" d="M120.652 318.387h-59.25a7.5 7.5 0 1 0 0 15h59.25c4.145 0 7.5-3.356 7.5-7.5a7.5 7.5 0 0 0-7.5-7.5zm109.68 0h-59.25a7.5 7.5 0 1 0 0 15h59.25c4.145 0 7.5-3.356 7.5-7.5.004-4.14-3.355-7.5-7.5-7.5zm109.684 0h-59.25a7.5 7.5 0 0 0-7.5 7.5c0 4.144 3.355 7.5 7.5 7.5h59.25a7.5 7.5 0 1 0 0-15zm109.679 0h-59.25a7.5 7.5 0 0 0-7.5 7.5 7.5 7.5 0 0 0 7.5 7.5h59.25c4.145 0 7.5-3.356 7.5-7.5a7.5 7.5 0 0 0-7.5-7.5zM20.16 185.54a7.5 7.5 0 0 0 7.41-6.403L50.668 23.55c.68-4.59 4.691-8.051 9.332-8.051h392c4.64 0 8.652 3.46 9.332 8.05l3.816 25.704c.61 4.098 4.422 6.93 8.52 6.316a7.504 7.504 0 0 0 6.32-8.52l-3.816-25.702C474.41 9.465 464.016.5 452 .5H60C47.984.5 37.594 9.46 35.828 21.348L12.73 176.938c-.667 4.507 2.817 8.601 7.43 8.601zm0 0"/><path fill="#c2b385" d="M400.035 76.27c-13.707-8.56-35.933-.528-49.91-4.934-27.031-8.527-53.922-27.691-92.637-27.691-26.093 0-43.8 24.167-61.707 27.468-18.254 3.364-42.191-13.39-60.797-5.277-31.597 13.781-73.023 17.258-73.023 44.203 0 24.05 19.727 65.723 48.527 79.277 16.809 7.914 54.817 5.09 74.578 9.079 21.008 4.238 53.145 19.386 79.965 19.386 25.137 0 40.719-21.988 57.98-25.035 40.993-7.226 52.09-4.61 81.114-22.422 2.879-1.91 14.664-8.855 25.684-18.426 13.613-11.82 20.234-22.457 20.234-32.511-.004-20.973-30.055-30.657-50.008-43.117zm-79.629 101.703c-21.566 3.804-35.945 24.804-55.375 24.804-23.734 0-55.031-14.656-77-19.09-20.039-4.039-58.39-1.933-71.156-7.945-5.672-2.668-10.832-6.707-15.434-11.527 30.891-16.153 84.063-26.004 142.102-26.004 57.32 0 110.809 9.91 141.59 25.746-16.457 8.406-38.551 9.398-64.727 14.016zm114.633-58.59c0 8.469-13.601 22.16-34.965 35.8-66.515-41.316-235.285-42.824-308.015-2.956-9.668-14.883-15.098-32.29-15.098-42.188 0-12.98 36.758-18.562 64.02-30.453 11.601-5.059 35.808 10.281 57.519 6.277 22.027-4.058 38.79-27.218 58.988-27.218 35.063 0 59.864 18.082 88.125 26.996 16.16 5.101 38.805-1.438 46.477 3.355 16.137 10.078 42.95 20.664 42.95 30.387zm0 0"/></svg>